<svg id="Laag_1" data-name="Laag 1" xmlns="http://www.w3.org/2000/svg" viewBox="0 0 100 115"><defs><style>.cls-1{fill:#fff}</style></defs><path class="cls-1" d="M45.56 91.23c-10.81 3.26-23.55 6.33-30.5 10-5.6 2.87-11 8.24-15.06 13v.77h97.49a68.2 68.2 0 0 1-51.93-23.77M33.78 72.26a69 69 0 0 1-5-26.07A67.14 67.14 0 0 1 39 10.16 38.48 38.48 0 0 0 12.93 0 36 36 0 0 0 0 2.3v73.79a40.71 40.71 0 0 0 12.93 2.3 38.54 38.54 0 0 0 20.85-6.13"/><path class="cls-1" d="M68.15 47.34a33.06 33.06 0 0 0 1 7.48l.2-.2c4.24-4.4 8.88-6.32 12.16-6.32a12 12 0 0 1 8.88 4.22s-4.64-.58-8.69 7.28a86.83 86.83 0 0 1-5.21 8.82C71 77.05 68.15 79.35 63.13 83c-2.9 2.3-10.23 5.75-17.57 8.05a67.74 67.74 0 0 0 51.93 24H100V15.53a31.8 31.8 0 0 0-31.85 31.81"/></svg>