<svg id="Laag_1" data-name="Laag 1" xmlns="http://www.w3.org/2000/svg" viewBox="0 0 179.48 196.41"><defs><style>.cls-1{fill:#fff;}</style></defs><path class="cls-1" d="M163.71,71.72v53C184.72,109.22,184.74,87.2,163.71,71.72Z"/><path class="cls-1" d="M6.21,183.88c7,11,19.29,15.17,33.95,10.86h0c.43-.12.85-.26,1.28-.4l1.32-.45.66-.24.93-.35-.9.33c.81-.3,1.63-.61,2.45-1,.19-.09.37-.15.56-.23l0,0c.93-.4,1.85-.84,2.76-1.29l.65-.32c.88-.45,1.77-.93,2.66-1.44l0,0,9.48-5.47Z"/><path class="cls-1" d="M96.2,164.18a112.47,112.47,0,0,1-21.61-19.49c-17.7,5.37-38.56,10.43-49.94,16.43C17,165.07,9.6,171.88,3.5,178.61a34.8,34.8,0,0,0,2.71,5.27H62.1Z"/><path class="cls-1" d="M47.09,70.42A111.58,111.58,0,0,1,62.68,12.93L52.62,7.12C34.53-3.32,18.48-1.88,9,8.83c-5.66,6.4-9,16.11-9,28.56v82.33a66.27,66.27,0,0,0,21.17,3.79A62.78,62.78,0,0,0,55.31,113.4,114.22,114.22,0,0,1,47.09,70.42Z"/><path class="cls-1" d="M163.71,71.72a63.79,63.79,0,0,0-5.89-3.85l-38.9-22.46a52.57,52.57,0,0,0-7.36,26.9,55.42,55.42,0,0,0,1.58,12.33l.32-.32c7-7.27,14.54-10.43,19.91-10.43,9.17,0,14.54,7,14.54,7s-7.59-.95-14.22,12c-2.22,4.74-5.38,9.48-8.54,14.53-8.85,13.91-13.59,17.7-21.8,23.71-4.74,3.79-16.75,9.79-28.76,13.59a110.81,110.81,0,0,0,21.69,19.45c21.92-12.67,44.8-25.89,61.55-35.54l.15-.09c1.33-.78,2.62-1.6,3.87-2.48l.22-.14.23-.17c.48-.33.94-.68,1.41-1Z"/></svg>